<?xml version="1.0" standalone="no"?>
<!DOCTYPE svg PUBLIC "-//W3C//DTD SVG 20010904//EN"
 "http://www.w3.org/TR/2001/REC-SVG-20010904/DTD/svg10.dtd">
<svg version="1.0" xmlns="http://www.w3.org/2000/svg"
 width="256.000000pt" height="256.000000pt" viewBox="0 0 256.000000 256.000000"
 preserveAspectRatio="xMidYMid meet">
<metadata>
Created by potrace 1.14, written by Peter Selinger 2001-2017
</metadata>
<g transform="translate(0.000000,256.000000) scale(0.100000,-0.100000)"
fill="#000000" stroke="none">
<path d="M1080 2509 c-19 -4 -50 -10 -68 -14 -60 -9 -156 -46 -239 -90 -248
-131 -423 -354 -494 -630 -33 -126 -33 -341 0 -465 31 -118 72 -210 136 -304
90 -135 188 -227 327 -310 l77 -45 33 24 c127 93 229 129 363 129 50 0 107 -3
129 -7 69 -13 170 -58 228 -103 l58 -44 57 31 c239 129 425 365 488 616 92
375 -33 759 -325 998 -123 101 -293 181 -440 210 -54 10 -291 13 -330 4z"/>
<path d="M1115 740 c-38 -9 -95 -29 -125 -44 -59 -30 -140 -91 -140 -107 0
-16 14 -10 53 25 49 42 146 90 214 106 154 35 343 -11 453 -111 19 -18 36 -27
42 -21 13 13 -85 85 -167 122 -39 17 -70 31 -70 30 0 -1 -16 1 -35 4 -77 14
-158 12 -225 -4z"/>
<path d="M1122 689 c-30 -9 -33 -13 -27 -36 3 -14 9 -38 12 -55 7 -35 31 -49
68 -39 42 11 44 31 3 28 -46 -3 -50 14 -8 28 25 9 31 15 20 19 -9 4 -26 5 -39
4 -36 -4 -37 20 -2 29 31 8 43 27 19 30 -7 1 -28 -3 -46 -8z"/>
<path d="M1312 678 c-13 -17 -36 -107 -29 -114 10 -11 27 7 27 28 0 18 4 19
36 13 27 -5 35 -3 32 7 -3 7 -15 15 -27 18 -33 8 -21 25 17 23 17 -1 32 2 32
7 0 21 -72 36 -88 18z"/>
<path d="M976 633 c-10 -11 -7 -19 25 -59 l30 -39 -23 -18 c-23 -19 -23 -19
-59 22 -32 36 -49 43 -49 20 0 -5 14 -24 31 -44 21 -24 40 -35 58 -35 31 0 61
27 61 54 0 28 -62 111 -74 99z"/>
<path d="M1458 574 c-54 -33 -72 -54 -48 -54 6 0 28 11 50 25 22 14 40 23 40
21 0 -16 -14 -36 -26 -36 -16 0 -19 -16 -4 -25 6 -4 9 -14 8 -22 -2 -9 2 -18
8 -20 8 -3 43 91 48 131 3 20 -22 13 -76 -20z"/>
<path d="M1164 525 c-77 -17 -171 -80 -162 -107 2 -6 15 0 30 15 99 99 278
104 386 11 48 -41 65 -30 19 13 -70 65 -174 91 -273 68z"/>
<path d="M224 360 l-29 -5 -3 -139 c-1 -83 1 -143 8 -151 16 -19 215 -18 231
1 9 11 10 20 2 32 -8 13 -26 17 -84 18 -82 0 -99 6 -99 34 0 23 12 27 88 26
52 -1 65 2 74 17 17 32 -7 46 -85 49 -71 3 -72 3 -73 30 l-1 28 82 -1 c46 -1
88 2 94 5 16 10 14 46 -3 52 -19 7 -166 10 -202 4z"/>
<path d="M1165 354 c-65 -32 -100 -125 -75 -198 11 -33 14 -36 52 -36 l40 0
-17 26 c-23 35 -22 90 2 122 75 101 199 -17 133 -125 -24 -41 -45 -46 -169
-41 -89 3 -102 6 -125 27 -25 24 -25 25 -6 38 41 29 56 80 35 128 -21 52 -59
66 -168 63 l-92 -3 -3 -139 c-3 -155 6 -183 47 -157 8 5 14 26 15 48 1 37 2
38 39 39 31 1 41 -4 53 -26 9 -14 32 -37 51 -50 33 -22 47 -25 161 -27 146 -3
179 8 220 70 70 105 -3 258 -122 256 -23 0 -55 -7 -71 -15z m-209 -63 c6 0 16
-12 22 -25 17 -38 -11 -56 -87 -56 l-63 0 3 38 c1 20 4 40 5 43 3 5 85 5 120
0z"/>
<path d="M1451 348 c-40 -27 -59 -71 -41 -93 15 -19 40 -2 40 26 0 21 36 49
63 49 10 0 29 -11 42 -24 36 -36 20 -71 -56 -120 -65 -42 -85 -65 -93 -108
l-4 -27 109 0 c89 0 111 2 116 15 9 24 -3 28 -94 26 -100 -3 -100 2 -3 65 66
42 84 68 84 119 0 76 -96 118 -163 72z"/>
<path d="M1692 350 c-65 -40 -92 -158 -53 -230 55 -103 182 -97 225 10 32 82
7 181 -56 220 -42 25 -74 25 -116 0z m86 -34 c29 -10 59 -71 56 -117 -4 -77
-49 -120 -109 -105 -67 17 -80 155 -19 213 24 22 31 23 72 9z"/>
<path d="M1943 355 c-41 -17 -68 -67 -53 -96 9 -16 14 -18 26 -8 8 6 14 18 14
25 0 20 37 54 59 54 25 0 61 -30 65 -55 5 -29 -12 -48 -84 -97 -49 -32 -68
-52 -76 -78 -7 -19 -10 -38 -8 -42 3 -4 51 -7 108 -7 77 0 107 3 115 13 19 23
-5 30 -97 28 -47 -2 -81 1 -78 7 3 4 35 28 70 52 35 24 71 56 81 71 29 49 4
119 -49 138 -38 13 -54 12 -93 -5z"/>
<path d="M2180 352 c-52 -26 -75 -74 -75 -156 1 -45 5 -71 13 -74 7 -2 12 -10
12 -17 0 -23 60 -59 100 -59 48 0 85 24 111 75 41 81 19 179 -51 227 -40 27
-64 28 -110 4z m115 -66 c24 -38 27 -94 6 -141 -43 -97 -143 -61 -154 55 -5
43 23 103 55 117 29 13 74 -2 93 -31z"/>
<path d="M477 353 c-4 -3 -7 -52 -7 -107 0 -84 4 -107 20 -134 25 -41 81 -66
130 -58 41 6 99 63 101 98 6 92 4 176 -3 191 -11 21 -44 22 -52 1 -3 -9 -6
-55 -6 -103 0 -79 -2 -90 -23 -109 -30 -28 -52 -28 -82 2 -21 21 -24 32 -24
115 0 51 -3 96 -6 102 -7 10 -38 12 -48 2z"/>
</g>
</svg>
